<svg xmlns="http://www.w3.org/2000/svg" width="151" height="45" viewBox="0 0 151 45">
    <g fill="none" fill-rule="evenodd">
        <g>
            <g>
                <g>
                    <g>
                        <g transform="translate(-1191 -2899) translate(0 2782) translate(1027 69) translate(0 48) translate(164)">
                            <rect width="150.292" height="44.292" x=".354" y=".354" stroke="#FFF" stroke-width=".708" rx="7.084"/>
                            <path fill="#FFF" fill-rule="nonzero" d="M51.504 15.469c2.227 0 3.536-1.375 3.536-3.718 0-2.338-1.314-3.713-3.536-3.713h-2.57v7.43h2.57zm-.063-.835h-1.573V8.872h1.573c1.703 0 2.643 1.03 2.643 2.889 0 1.844-.945 2.873-2.643 2.873zm7.798.886c1.574 0 2.58-1.107 2.58-2.827 0-1.725-1.006-2.827-2.58-2.827-1.573 0-2.58 1.102-2.58 2.827 0 1.72 1.007 2.827 2.58 2.827zm0-.798c-1.038 0-1.661-.757-1.661-2.029 0-1.272.618-2.03 1.661-2.03 1.044 0 1.662.753 1.662 2.03 0 1.272-.618 2.029-1.662 2.029zm6.407.747l1.277-4.316h.02l1.278 4.316h.914l1.568-5.552h-.893l-1.137 4.537h-.02L67.37 9.917h-.873l-1.282 4.537h-.02l-1.138-4.537h-.893l1.568 5.552h.914zm7.58 0v-3.224c0-.953.555-1.581 1.474-1.581.883 0 1.309.494 1.309 1.4v3.405h.903V11.91c0-1.262-.711-2.044-1.942-2.044-.867 0-1.422.324-1.775.952h-.021v-.9h-.852v5.55h.904zm6.692 0V7.713h-.904v7.756h.904zm4.433.051c1.573 0 2.58-1.107 2.58-2.827 0-1.725-1.007-2.827-2.58-2.827-1.573 0-2.58 1.102-2.58 2.827 0 1.72 1.007 2.827 2.58 2.827zm0-.798c-1.038 0-1.661-.757-1.661-2.029 0-1.272.617-2.03 1.661-2.03s1.662.753 1.662 2.03c0 1.272-.618 2.029-1.662 2.029zm6.017.798c.784 0 1.485-.396 1.802-1.014h.02v.963h.857v-3.811c0-1.092-.851-1.792-2.175-1.792-1.174 0-2.093.716-2.119 1.653h.867c.11-.525.592-.855 1.241-.855.826 0 1.283.381 1.283 1.071v.464l-1.568.092c-1.36.083-2.098.644-2.098 1.597 0 .983.753 1.632 1.89 1.632zm.192-.777c-.706 0-1.158-.335-1.158-.85 0-.536.437-.84 1.278-.891l1.464-.093v.448c0 .799-.67 1.386-1.584 1.386zm6.661.777c.81 0 1.449-.35 1.812-.989h.016v.938h.862V7.713h-.904v3.105h-.02c-.343-.607-.987-.952-1.787-.952-1.391 0-2.378 1.133-2.378 2.827s.992 2.827 2.4 2.827zm.161-.798c-.981 0-1.635-.798-1.635-2.029 0-1.226.654-2.03 1.635-2.03.971 0 1.63.825 1.63 2.03 0 1.21-.659 2.029-1.63 2.029zm10.357.798c1.573 0 2.58-1.107 2.58-2.827 0-1.725-1.007-2.827-2.58-2.827-1.573 0-2.58 1.102-2.58 2.827 0 1.72 1.007 2.827 2.58 2.827zm0-.798c-1.038 0-1.661-.757-1.661-2.029 0-1.272.617-2.03 1.661-2.03s1.662.753 1.662 2.03c0 1.272-.618 2.029-1.662 2.029zm5.285.747v-3.224c0-.953.556-1.581 1.475-1.581.882 0 1.308.494 1.308 1.4v3.405h.903V11.91c0-1.262-.71-2.044-1.941-2.044-.868 0-1.423.324-1.776.952h-.021v-.9h-.851v5.55h.903zm10.835.04c.212 0 .472-.02.581-.045v-.757c-.062.01-.28.025-.39.025-.477 0-.695-.231-.695-.741v-3.332h1.09v-.742h-1.09V8.666h-.904v1.251h-.778v.742h.778v3.368c0 1.066.395 1.483 1.408 1.483zm3.395-.04v-3.193c0-.973.581-1.612 1.526-1.612.888 0 1.34.536 1.34 1.421v3.384h.903v-3.543c0-1.236-.748-2.06-1.973-2.06-.857 0-1.428.324-1.776.952h-.02V7.713h-.904v7.756h.904zm8.109.051c1.194 0 2.165-.685 2.321-1.637h-.893c-.161.52-.706.85-1.407.85-.997 0-1.651-.686-1.651-1.741v-.052h4.019v-.35c0-1.679-.935-2.724-2.43-2.724-1.527 0-2.524 1.128-2.524 2.848s.992 2.806 2.565 2.806zm1.449-3.296h-3.08c.063-.937.696-1.57 1.574-1.57.883 0 1.485.628 1.506 1.57zM50.807 35.86l1.325-3.884h5.52l1.326 3.883h2.379l-5.23-14.367h-2.43l-5.23 14.367h2.34zm6.274-5.676h-4.377l2.158-6.302h.06l2.159 6.302zm7.83 9.26v-5.357h.04c.652 1.195 1.887 1.882 3.453 1.882 2.74 0 4.557-2.17 4.557-5.516 0-3.355-1.827-5.516-4.607-5.516-1.516 0-2.861.737-3.474 1.902h-.05v-1.792h-2.098v14.397h2.179zm2.89-5.307c-1.736 0-2.9-1.474-2.91-3.684.01-2.2 1.184-3.684 2.91-3.684 1.767 0 2.932 1.454 2.932 3.684 0 2.24-1.165 3.684-2.931 3.684zm9.075 5.307v-5.357h.04c.653 1.195 1.888 1.882 3.454 1.882 2.74 0 4.557-2.17 4.557-5.516 0-3.355-1.827-5.516-4.608-5.516-1.515 0-2.86.737-3.473 1.902h-.05v-1.792h-2.098v14.397h2.178zm2.891-5.307c-1.736 0-2.9-1.474-2.91-3.684.01-2.2 1.184-3.684 2.91-3.684 1.767 0 2.932 1.454 2.932 3.684 0 2.24-1.165 3.684-2.932 3.684zm16.734 1.961c3.434 0 5.592-1.682 5.592-4.37 0-2.101-1.235-3.286-4.206-3.983l-1.596-.388c-1.868-.458-2.63-1.056-2.63-2.071 0-1.275 1.194-2.15 2.94-2.15 1.747 0 2.942.865 3.073 2.3h2.188c-.07-2.48-2.168-4.183-5.23-4.183-3.092 0-5.27 1.703-5.27 4.182 0 2.001 1.234 3.236 3.895 3.873l1.877.448c1.877.458 2.67 1.125 2.67 2.24 0 1.285-1.315 2.22-3.142 2.22-1.907 0-3.303-.935-3.463-2.36H90.98c.14 2.6 2.31 4.242 5.521 4.242zm11.063-.169c.472 0 .984-.05 1.224-.11v-1.702c-.14.02-.512.05-.742.05-.914 0-1.336-.438-1.336-1.374v-6.044h2.088v-1.702h-2.088v-2.43h-2.168v2.43h-1.506v1.702h1.506v6.263c0 2.09.843 2.917 3.022 2.917zm7.74.06c3.151 0 5.15-2.13 5.15-5.536 0-3.405-2.009-5.546-5.15-5.546-3.143 0-5.16 2.151-5.16 5.546 0 3.405 2.007 5.536 5.16 5.536zm0-1.792c-1.848 0-2.952-1.384-2.952-3.744 0-2.35 1.104-3.753 2.951-3.753s2.942 1.393 2.942 3.753c0 2.36-1.095 3.744-2.942 3.744zm9.074 1.662v-6.451c0-1.524.904-2.51 2.34-2.51.43 0 .812.06.993.13v-2.021c-.17-.04-.442-.07-.763-.07-1.285 0-2.289.727-2.63 1.932h-.04v-1.822H122.2v10.812h2.178zm9.366.13c2.45 0 4.367-1.354 4.678-3.296h-2.078c-.301.946-1.295 1.543-2.56 1.543-1.787 0-2.971-1.234-2.971-3.106V31h7.72v-.756c0-3.276-1.888-5.337-4.88-5.337-3.051 0-5.039 2.2-5.039 5.586 0 3.385 1.968 5.496 5.13 5.496zm2.61-6.522h-5.531c.12-1.662 1.255-2.797 2.82-2.797 1.587 0 2.66 1.115 2.71 2.797zM34.141 33.542c-1.244 1.797-2.53 3.582-4.562 3.62-2 .037-2.64-1.17-4.922-1.17-2.284 0-2.999 1.132-4.887 1.207-1.961.072-3.452-1.94-4.707-3.729-2.562-3.656-4.518-10.338-1.888-14.847 1.303-2.24 3.637-3.656 6.166-3.694 1.926-.035 3.746 1.283 4.922 1.283 1.178 0 3.387-1.582 5.709-1.35.972.04 3.7.387 5.451 2.918-.138.09-3.256 1.88-3.218 5.612.038 4.457 3.956 5.938 4.001 5.958-.035.105-.626 2.115-2.065 4.192zm-8.53-23.576c1.075-1.244 2.892-2.17 4.391-2.232.192 1.729-.512 3.46-1.552 4.706-1.042 1.245-2.748 2.215-4.422 2.086-.228-1.691.616-3.455 1.583-4.56z"/>
                        </g>
                    </g>
                </g>
            </g>
        </g>
    </g>
</svg>
