<?xml version="1.0" encoding="utf-8"?>
<!-- Generator: Adobe Illustrator 25.0.0, SVG Export Plug-In . SVG Version: 6.00 Build 0)  -->
<svg version="1.1" id="Layer_1" xmlns="http://www.w3.org/2000/svg" xmlns:xlink="http://www.w3.org/1999/xlink" x="0px" y="0px"
	 viewBox="0 0 213 64" style="enable-background:new 0 0 213 64;" xml:space="preserve">
<style type="text/css">
	.st0{fill:none;stroke:#FFFFFF;}
	.st1{fill:#FFFFFF;}
</style>
<g id="app-store-_x2F_-Google-Play">
	<g id="Google-Play">
		<path id="button" class="st0" d="M10.5,0.5h192c5.5,0,10,4.5,10,10v43c0,5.5-4.5,10-10,10h-192c-5.5,0-10-4.5-10-10v-43
			C0.5,5,5,0.5,10.5,0.5z"/>
		<path id="Downloadon" class="st1" d="M73.1,22c1,0,1.8-0.2,2.5-0.6s1.3-1,1.7-1.7s0.6-1.6,0.6-2.6l0,0v-0.7c0-1-0.2-1.9-0.6-2.6
			s-0.9-1.3-1.7-1.8s-1.5-0.6-2.5-0.6l0,0h-3V22H73.1z M73.1,20.9h-1.5v-8.4h1.6c1,0,1.9,0.4,2.4,1s0.9,1.6,0.9,2.8l0,0V17
			c0,1.2-0.3,2.2-0.9,2.9S74.1,20.9,73.1,20.9L73.1,20.9z M84.2,22.1c0.7,0,1.3-0.2,1.9-0.5s1-0.8,1.3-1.4s0.4-1.3,0.4-2.1l0,0V18
			c0-1.2-0.3-2.2-1-3s-1.5-1.1-2.6-1.1c-0.7,0-1.3,0.2-1.9,0.5s-1,0.8-1.3,1.4s-0.5,1.3-0.5,2.1l0,0v0.1c0,1.2,0.3,2.2,1,3
			S83.2,22.1,84.2,22.1z M84.2,21c-0.7,0-1.2-0.3-1.6-0.8S82,19,82,18.1c0-1,0.2-1.8,0.6-2.3s0.9-0.8,1.6-0.8c0.7,0,1.2,0.3,1.6,0.8
			s0.6,1.2,0.6,2.1c0,1-0.2,1.7-0.6,2.3S84.9,21,84.2,21z M93.4,22l1.9-6l1.9,6h1.1l2.3-7.9h-1.4l-1.5,6.1l-1.9-6.1h-1.1L92.9,20
			l-1.6-5.9H90l2.3,7.9H93.4z M104.6,22v-5.6c0.2-0.4,0.4-0.7,0.8-0.9s0.7-0.4,1.2-0.4c0.5,0,0.9,0.1,1.2,0.4s0.4,0.7,0.4,1.3l0,0
			V22h1.4v-5.2c0-1.9-0.9-2.8-2.5-2.8c-1,0-1.8,0.4-2.4,1.1l0,0l0-1h-1.3V22H104.6z M114.2,22V10.8h-1.4V22H114.2z M120.8,22.1
			c0.7,0,1.3-0.2,1.9-0.5s1-0.8,1.3-1.4s0.4-1.3,0.4-2.1l0,0V18c0-1.2-0.3-2.2-1-3s-1.5-1.1-2.6-1.1c-0.7,0-1.3,0.2-1.9,0.5
			s-1,0.8-1.3,1.4s-0.5,1.3-0.5,2.1l0,0v0.1c0,1.2,0.3,2.2,1,3S119.7,22.1,120.8,22.1z M120.8,21c-0.7,0-1.2-0.3-1.6-0.8
			s-0.6-1.2-0.6-2.1c0-1,0.2-1.8,0.6-2.3s0.9-0.8,1.6-0.8c0.7,0,1.2,0.3,1.6,0.8s0.6,1.2,0.6,2.1c0,1-0.2,1.7-0.6,2.3
			S121.5,21,120.8,21z M129.7,22.1c0.9,0,1.6-0.3,2.3-1c0,0.4,0.1,0.7,0.2,0.8l0,0h1.4v-0.1c-0.2-0.4-0.3-1-0.3-1.7l0,0v-3.6
			c0-0.8-0.3-1.4-0.8-1.9s-1.2-0.7-2.1-0.7c-0.6,0-1.1,0.1-1.6,0.3s-0.9,0.5-1.1,0.9s-0.4,0.8-0.4,1.1l0,0h1.4
			c0-0.3,0.2-0.6,0.5-0.9s0.7-0.4,1.2-0.4c0.6,0,1,0.1,1.3,0.4s0.4,0.7,0.4,1.1l0,0v0.6h-1.3c-1.1,0-2,0.2-2.6,0.7s-0.9,1.1-0.9,1.9
			c0,0.7,0.3,1.2,0.8,1.7S129,22.1,129.7,22.1z M129.9,21c-0.4,0-0.8-0.1-1.1-0.4s-0.4-0.6-0.4-1c0-1,0.8-1.5,2.5-1.5l0,0h1.1v1.6
			c-0.2,0.4-0.4,0.6-0.8,0.9S130.4,21,129.9,21z M139.4,22.1c1,0,1.7-0.3,2.3-1l0,0l0.1,0.8h1.2V10.8h-1.4v4.1c-0.5-0.6-1.3-1-2.2-1
			c-0.9,0-1.7,0.4-2.3,1.1s-0.9,1.7-0.9,2.9l0,0v0.1c0,1.2,0.3,2.2,0.9,2.9S138.5,22.1,139.4,22.1z M139.8,21
			c-0.7,0-1.2-0.3-1.5-0.8s-0.6-1.2-0.6-2.1c0-1,0.2-1.8,0.6-2.3s0.9-0.8,1.6-0.8c0.8,0,1.5,0.4,1.9,1.1l0,0v3.6
			C141.3,20.6,140.6,21,139.8,21z M154.5,22.1c0.7,0,1.3-0.2,1.9-0.5c0.5-0.3,1-0.8,1.3-1.4c0.3-0.6,0.4-1.3,0.4-2.1l0,0V18
			c0-1.2-0.3-2.2-1-3s-1.5-1.1-2.6-1.1c-0.7,0-1.3,0.2-1.9,0.5c-0.5,0.3-1,0.8-1.3,1.4s-0.5,1.3-0.5,2.1l0,0v0.1c0,1.2,0.3,2.2,1,3
			C152.5,21.8,153.4,22.1,154.5,22.1z M154.5,21c-0.7,0-1.2-0.3-1.6-0.8c-0.4-0.5-0.6-1.2-0.6-2.1c0-1,0.2-1.8,0.6-2.3
			c0.4-0.5,0.9-0.8,1.6-0.8c0.7,0,1.2,0.3,1.6,0.8c0.4,0.5,0.6,1.2,0.6,2.1c0,1-0.2,1.7-0.6,2.3C155.7,20.8,155.2,21,154.5,21z
			 M162.3,22v-5.6c0.2-0.4,0.4-0.7,0.8-0.9s0.7-0.4,1.2-0.4c0.5,0,0.9,0.1,1.2,0.4s0.4,0.7,0.4,1.3l0,0V22h1.4v-5.2
			c0-1.9-0.9-2.8-2.5-2.8c-1,0-1.8,0.4-2.4,1.1l0,0l0-1H161V22H162.3z"/>
		<path id="play" class="st1" d="M149.2,54.9v-6.5c0.9,1.2,2.2,1.8,4,1.8c1.5,0,2.6-0.6,3.5-1.7s1.3-2.7,1.3-4.7l0,0v-0.2
			c0-2-0.4-3.6-1.3-4.8s-2.1-1.7-3.6-1.7c-1.7,0-3.1,0.7-4,2l0,0l-0.1-1.8h-1.3v17.6H149.2z M152.9,49.1c-0.9,0-1.6-0.2-2.2-0.6
			s-1.1-0.9-1.4-1.7l0,0v-6.1c0.3-0.8,0.8-1.4,1.4-1.8s1.4-0.6,2.2-0.6c1.2,0,2.1,0.5,2.8,1.4s1,2.2,1,3.8c0,1.8-0.3,3.2-1,4.1
			S154,49.1,152.9,49.1z M162.7,50V32h-1.4v18H162.7z M169.9,50.2c0.9,0,1.7-0.2,2.4-0.5s1.4-0.8,1.9-1.5c0,0.8,0.1,1.4,0.3,1.8l0,0
			h1.5v-0.1c-0.3-0.6-0.4-1.5-0.4-2.8l0,0v-6c0-1.3-0.4-2.3-1.3-3s-1.9-1.1-3.3-1.1c-1.4,0-2.5,0.4-3.5,1.1s-1.4,1.6-1.4,2.6l0,0
			l1.4,0c0-0.7,0.3-1.3,1-1.8s1.4-0.8,2.4-0.8c1.1,0,1.9,0.3,2.4,0.8s0.8,1.2,0.8,2.1l0,0v1.4h-2.5c-1.8,0-3.3,0.4-4.3,1.1
			s-1.5,1.7-1.5,2.9c0,1,0.4,1.9,1.1,2.6S168.7,50.2,169.9,50.2z M170.1,49c-0.8,0-1.5-0.2-2.1-0.7s-0.8-1.1-0.8-1.8
			c0-0.9,0.4-1.5,1.2-2s1.9-0.8,3.3-0.8l0,0h2.5v2.8c-0.3,0.8-0.9,1.4-1.6,1.8S171,49,170.1,49z M179.7,55.1c1.5,0,2.5-0.8,3.2-2.3
			l0,0l0.3-0.7l5.4-14.8h-1.5L183.4,48l-3.9-10.7h-1.5l4.8,12.6l-0.6,1.7c-0.3,0.8-0.7,1.4-1.1,1.8s-1,0.5-1.7,0.5l0,0l-0.7-0.1
			l0,1.2C179,55.1,179.3,55.1,179.7,55.1z"/>
		<path id="logo" class="st1" d="M16,49.3V14.7c0-1.2,0.7-2.2,1.7-2.7l20,20l-20,20C16.7,51.5,16,50.5,16,49.3z M44,38.3L22.2,51
			l17.2-17.2L44,38.3z M50.8,29.6C51.5,30.1,52,31,52,32c0,1-0.5,1.8-1.2,2.4l-4.6,2.7L41.1,32l5.1-5.1L50.8,29.6z M22.2,13L44,25.7
			l-4.6,4.6L22.2,13z"/>
	</g>
</g>
<g>
	<path class="st1" d="M87.1,40.8H79v2.4h5.8c-0.3,3.3-3.1,4.8-5.7,4.8c-3.4,0-6.3-2.6-6.3-6.3c0-3.6,2.8-6.4,6.3-6.4
		c2.7,0,4.3,1.7,4.3,1.7l1.7-1.7c0,0-2.1-2.4-6-2.4c-5,0-8.8,4.2-8.8,8.7c0,4.4,3.6,8.8,8.9,8.8c4.7,0,8.1-3.2,8.1-7.9
		C87.2,41.4,87.1,40.8,87.1,40.8L87.1,40.8z"/>
	<path class="st1" d="M93.9,39.1c-3.3,0-5.6,2.6-5.6,5.6c0,3,2.3,5.7,5.7,5.7c3.1,0,5.6-2.4,5.6-5.6C99.5,41,96.6,39.1,93.9,39.1
		L93.9,39.1z M93.9,41.3c1.6,0,3.2,1.3,3.2,3.4c0,2.1-1.5,3.4-3.2,3.4c-1.8,0-3.2-1.4-3.2-3.4C90.7,42.7,92.1,41.3,93.9,41.3
		L93.9,41.3z"/>
	<path class="st1" d="M106.1,39.1c-3.3,0-5.6,2.6-5.6,5.6c0,3,2.3,5.7,5.7,5.7c3.1,0,5.6-2.4,5.6-5.6
		C111.7,41,108.8,39.1,106.1,39.1L106.1,39.1z M106.1,41.3c1.6,0,3.2,1.3,3.2,3.4c0,2.1-1.5,3.4-3.2,3.4c-1.8,0-3.2-1.4-3.2-3.4
		C102.9,42.7,104.3,41.3,106.1,41.3L106.1,41.3z"/>
	<path class="st1" d="M118.2,39.1c-3,0-5.4,2.6-5.4,5.6c0,3.4,2.8,5.6,5.3,5.6c1.6,0,2.5-0.6,3.1-1.4V50c0,1.9-1.2,3.1-3,3.1
		c-1.7,0-2.6-1.3-2.9-2l-2.2,0.9c0.8,1.6,2.3,3.3,5.1,3.3c3,0,5.3-1.9,5.3-5.9V39.3h-2.4v1.1C120.5,39.6,119.5,39.1,118.2,39.1
		L118.2,39.1z M118.4,41.3c1.5,0,3,1.3,3,3.4c0,2.2-1.5,3.4-3,3.4c-1.6,0-3.1-1.3-3.1-3.4C115.2,42.5,116.8,41.3,118.4,41.3
		L118.4,41.3z"/>
	<path class="st1" d="M133.8,39c-2.8,0-5.2,2.3-5.2,5.6c0,3.5,2.7,5.6,5.5,5.6c2.4,0,3.8-1.3,4.7-2.5l-1.9-1.3
		c-0.5,0.8-1.3,1.5-2.8,1.5c-1.6,0-2.3-0.9-2.8-1.7l7.5-3.1l-0.4-0.9C137.7,40.5,136,39,133.8,39L133.8,39z M133.9,41.2
		c1,0,1.8,0.5,2.1,1.2l-5,2.1C130.7,42.9,132.3,41.2,133.9,41.2L133.9,41.2z"/>
	<rect x="125.1" y="33.4" class="st1" width="2.3" height="16.6"/>
</g>
</svg>
